<?xml version="1.0" encoding="utf-8"?>
<!-- Generator: Adobe Illustrator 21.0.2, SVG Export Plug-In . SVG Version: 6.00 Build 0)  -->
<svg version="1.1" id="Layer_2" xmlns="http://www.w3.org/2000/svg" xmlns:xlink="http://www.w3.org/1999/xlink" x="0px" y="0px"
	 viewBox="0 0 127 48.3" style="enable-background:new 0 0 127 48.3;" xml:space="preserve">
<style type="text/css">
	.st0{fill:#222359;}
	.st1{fill:#F79523;}
</style>
<g>
	<path class="st0" d="M5.9,48.3H0.4V18.8l5.5-3.1V48.3z"/>
	<path class="st0" d="M34.4,7.1h-0.3c-0.6-0.2-1.4-0.4-2.4-0.5c-1-0.2-1.8-0.3-2.6-0.3c-2.4,0-4.1,0.5-5.1,1.6
		c-1.1,1-1.6,2.9-1.6,5.7v1.1h9.9v4.6h-9.8v28.1h-5.5V19.2h-3.7v-4.6h3.7v-1.1c0-3.9,1-6.9,2.9-9s4.7-3.1,8.4-3.1
		c1.2,0,2.3,0.1,3.3,0.2c1,0.1,1.9,0.3,2.7,0.4V7.1z"/>
	<path class="st0" d="M61.2,37.9c0,3-1.2,5.4-3.7,7.4c-2.5,1.9-5.8,2.9-10.1,2.9c-2.4,0-4.6-0.3-6.7-0.9s-3.7-1.2-5.1-1.9v-6.2h0.3
		c1.7,1.3,3.7,2.3,5.8,3.1c2.1,0.8,4.2,1.2,6.1,1.2c2.4,0,4.3-0.4,5.7-1.2c1.4-0.8,2.1-2,2.1-3.7c0-1.3-0.4-2.3-1.1-2.9
		c-0.7-0.7-2.2-1.2-4.3-1.7c-0.8-0.2-1.8-0.4-3.1-0.6s-2.4-0.5-3.4-0.8c-2.9-0.8-4.9-1.9-6.1-3.4s-1.8-3.3-1.8-5.4
		c0-1.3,0.3-2.6,0.8-3.8s1.4-2.3,2.5-3.2c1.1-0.9,2.5-1.6,4.2-2.2c1.7-0.5,3.6-0.8,5.7-0.8c2,0,3.9,0.2,5.9,0.7c2,0.5,3.7,1.1,5,1.7
		v5.9h-0.3c-1.4-1-3.1-1.9-5.1-2.6c-2-0.7-4-1.1-5.9-1.1c-2,0-3.7,0.4-5.1,1.2c-1.4,0.8-2.1,1.9-2.1,3.4c0,1.3,0.4,2.4,1.3,3
		c0.8,0.7,2.1,1.2,4,1.7c1,0.2,2.2,0.5,3.4,0.7s2.3,0.4,3.1,0.6c2.6,0.6,4.5,1.6,5.9,3C60.5,33.6,61.2,35.5,61.2,37.9z"/>
</g>
<circle class="st1" cx="3.1" cy="10" r="3.1"/>
<g>
	<path class="st0" d="M70.4,45c-0.2,0.2-0.5,0.3-0.8,0.4c-0.3,0.1-0.6,0.1-1,0.1c-0.4,0-0.8-0.1-1.2-0.2c-0.4-0.2-0.7-0.4-0.9-0.8
		c-0.3-0.3-0.5-0.8-0.6-1.3s-0.2-1.2-0.2-2c0-0.8,0.1-1.5,0.2-2c0.2-0.6,0.4-1,0.7-1.3c0.3-0.3,0.6-0.6,0.9-0.7
		c0.4-0.2,0.7-0.2,1.1-0.2c0.4,0,0.7,0,1,0.1s0.5,0.1,0.7,0.2l-0.2,0.8c-0.2-0.1-0.3-0.2-0.6-0.2c-0.2,0-0.5-0.1-0.7-0.1
		c-0.3,0-0.5,0.1-0.8,0.2s-0.5,0.3-0.7,0.6c-0.2,0.3-0.3,0.6-0.5,1.1c-0.1,0.4-0.2,1-0.2,1.6c0,1.2,0.2,2,0.6,2.6
		c0.4,0.6,0.9,0.9,1.6,0.9c0.3,0,0.5,0,0.7-0.1c0.2-0.1,0.4-0.2,0.6-0.3L70.4,45z"/>
	<path class="st0" d="M71,41.1c0-1.4,0.2-2.5,0.7-3.2c0.5-0.7,1.2-1.1,2.1-1.1c0.5,0,0.9,0.1,1.3,0.3s0.6,0.5,0.9,0.9
		c0.2,0.4,0.4,0.8,0.5,1.4s0.2,1.1,0.2,1.8c0,1.4-0.2,2.5-0.7,3.2s-1.2,1.1-2.1,1.1c-0.5,0-0.9-0.1-1.3-0.3s-0.6-0.5-0.9-0.9
		s-0.4-0.8-0.5-1.4C71.1,42.4,71,41.8,71,41.1z M72,41.1c0,0.5,0,0.9,0.1,1.3c0.1,0.4,0.2,0.8,0.3,1.1c0.1,0.3,0.3,0.6,0.6,0.8
		c0.2,0.2,0.5,0.3,0.8,0.3c0.6,0,1.1-0.3,1.4-0.9c0.3-0.6,0.5-1.5,0.5-2.7c0-0.5,0-0.9-0.1-1.3c-0.1-0.4-0.2-0.8-0.3-1.1
		c-0.1-0.3-0.3-0.6-0.6-0.8c-0.2-0.2-0.5-0.3-0.9-0.3c-0.6,0-1,0.3-1.4,0.9C72.1,39.1,72,39.9,72,41.1z"/>
	<path class="st0" d="M79.2,40l-0.5-1.3h0l0.1,1.3v5.3h-0.9v-8.5h0.5l3.1,5.4l0.5,1.3h0l-0.1-1.3v-5.3h0.9v8.5h-0.6L79.2,40z"/>
	<path class="st0" d="M84.3,44.2c0.2,0.1,0.4,0.2,0.6,0.3c0.3,0.1,0.6,0.1,0.9,0.1c0.4,0,0.8-0.1,1.1-0.3c0.3-0.2,0.4-0.6,0.4-1
		c0-0.3-0.1-0.6-0.2-0.8c-0.2-0.2-0.4-0.4-0.6-0.6s-0.5-0.4-0.8-0.6c-0.3-0.2-0.5-0.4-0.8-0.6c-0.2-0.2-0.4-0.5-0.6-0.8
		s-0.2-0.7-0.2-1.1c0-0.7,0.2-1.2,0.6-1.5c0.4-0.3,0.9-0.5,1.6-0.5c0.4,0,0.8,0,1.1,0.1c0.3,0.1,0.6,0.2,0.8,0.3L87.9,38
		c-0.1-0.1-0.3-0.2-0.6-0.2c-0.3-0.1-0.6-0.1-0.9-0.1c-0.4,0-0.8,0.1-1,0.3c-0.2,0.2-0.3,0.5-0.3,0.8c0,0.3,0.1,0.5,0.2,0.7
		c0.2,0.2,0.4,0.4,0.6,0.6c0.2,0.2,0.5,0.4,0.8,0.6c0.3,0.2,0.5,0.4,0.8,0.7c0.2,0.2,0.4,0.5,0.6,0.8c0.2,0.3,0.2,0.7,0.2,1.1
		c0,0.7-0.2,1.3-0.6,1.7c-0.4,0.4-1,0.6-1.8,0.6c-0.5,0-0.9,0-1.2-0.1c-0.3-0.1-0.6-0.2-0.7-0.3L84.3,44.2z"/>
	<path class="st0" d="M93.3,36.9h0.9v5.6c0,1-0.2,1.8-0.6,2.2c-0.4,0.5-1,0.7-1.7,0.7c-0.8,0-1.5-0.2-1.9-0.7
		c-0.4-0.4-0.6-1.1-0.6-2v-5.8h0.9v5.4c0,0.4,0,0.8,0.1,1.1s0.1,0.5,0.3,0.7c0.1,0.2,0.3,0.3,0.5,0.4c0.2,0.1,0.4,0.1,0.7,0.1
		c0.5,0,0.9-0.2,1.1-0.6c0.2-0.4,0.3-1,0.3-1.8V36.9z"/>
	<path class="st0" d="M99.8,45.3h-4v-8.4h0.9v7.6h3.1V45.3z"/>
	<path class="st0" d="M103.9,37.8h-2.1v7.6H101v-7.6h-2.1v-0.8h5V37.8z"/>
	<path class="st0" d="M107.4,43h-2.4l-0.7,2.4h-0.9l2.5-8.5h0.5l2.5,8.5h-0.9L107.4,43z M105.3,42.2h1.9l-0.7-2.6l-0.2-1.3h0
		l-0.2,1.3L105.3,42.2z"/>
	<path class="st0" d="M111.2,40l-0.5-1.3h0l0.1,1.3v5.3h-0.9v-8.5h0.5l3.1,5.4l0.5,1.3h0l-0.1-1.3v-5.3h0.9v8.5h-0.6L111.2,40z"/>
	<path class="st0" d="M120.8,37.8h-2.1v7.6h-0.9v-7.6h-2.1v-0.8h5V37.8z"/>
	<path class="st0" d="M121.6,44.2c0.2,0.1,0.4,0.2,0.6,0.3c0.3,0.1,0.6,0.1,0.9,0.1c0.4,0,0.8-0.1,1.1-0.3c0.3-0.2,0.4-0.6,0.4-1
		c0-0.3-0.1-0.6-0.2-0.8c-0.2-0.2-0.4-0.4-0.6-0.6s-0.5-0.4-0.8-0.6c-0.3-0.2-0.5-0.4-0.8-0.6c-0.2-0.2-0.4-0.5-0.6-0.8
		c-0.2-0.3-0.2-0.7-0.2-1.1c0-0.7,0.2-1.2,0.6-1.5c0.4-0.3,0.9-0.5,1.6-0.5c0.4,0,0.8,0,1.1,0.1c0.3,0.1,0.6,0.2,0.8,0.3l-0.3,0.8
		c-0.1-0.1-0.3-0.2-0.6-0.2c-0.3-0.1-0.6-0.1-0.9-0.1c-0.4,0-0.8,0.1-1,0.3c-0.2,0.2-0.3,0.5-0.3,0.8c0,0.3,0.1,0.5,0.2,0.7
		c0.2,0.2,0.4,0.4,0.6,0.6c0.2,0.2,0.5,0.4,0.8,0.6c0.3,0.2,0.5,0.4,0.8,0.7c0.2,0.2,0.4,0.5,0.6,0.8c0.2,0.3,0.2,0.7,0.2,1.1
		c0,0.7-0.2,1.3-0.6,1.7c-0.4,0.4-1,0.6-1.8,0.6c-0.5,0-0.9,0-1.2-0.1s-0.6-0.2-0.7-0.3L121.6,44.2z"/>
</g>
</svg>
